<?xml version="1.0" encoding="utf-8"?>
<!-- Generator: Adobe Illustrator 16.0.0, SVG Export Plug-In . SVG Version: 6.00 Build 0)  -->
<!DOCTYPE svg PUBLIC "-//W3C//DTD SVG 1.1//EN" "http://www.w3.org/Graphics/SVG/1.1/DTD/svg11.dtd">
<svg version="1.1" xmlns="http://www.w3.org/2000/svg" xmlns:xlink="http://www.w3.org/1999/xlink" x="0px" y="0px" width="147px"
	 height="204.052px" viewBox="0 0 147 204.052" enable-background="new 0 0 147 204.052" xml:space="preserve">
<g id="レイヤー_1">
	<path fill="#CFBB7E" d="M46.512,0L33.901,59l25.145-16.542c0,0,26.483,7.185,44.092-12.958L147,0H46.512z"/>
</g>
<g id="レイヤー_2">
	<path fill="#CFBB7E" d="M51.258,61H0v143c0,0,148.992,8.75,146.336-200.917C146.336,3.083,110.589,61,51.258,61z"/>
	<path fill="#FFFFFF" d="M63.706,32.837c0,0,9.338-8.021,22.521-3.03C86.227,29.807,74.142,40.146,63.706,32.837z"/>
</g>
<g id="レイヤー_3">
	<path fill="#FFFFFF" d="M0,98l64.202-0.333c0,0-32.269,5.5-64.202,5.5"/>
	<path fill="#FFFFFF" d="M0,144l33.504-0.167c0,0-1.57,5.616-33.504,5.616"/>
</g>
<g id="レイヤー_4">
	<polygon fill="#EAD7A0" points="34,59 34,54 59.221,42.458 	"/>
	<g>
	</g>
	<g>
	</g>
	<g>
	</g>
	<g>
	</g>
	<g>
	</g>
	<g>
	</g>
	<g>
	</g>
	<g>
	</g>
	<g>
	</g>
	<g>
	</g>
	<g>
	</g>
	<g>
	</g>
	<g>
	</g>
	<g>
	</g>
	<g>
	</g>
</g>
</svg>
